ModelForces
version=1
nRows=4
nColumns=94
inDegrees=yes

This file contains the forces exerted on a model during a simulation.

A force is a generalized force, meaning that it can be either a force (N) or a torque (Nm).

Units are S.I. units (second, meters, Newtons, ...)
Angles are in degrees.

endheader 
time	addbrev_l	addlong_l	addmagDist_l	addmagIsch_l	addmagMid_l	addmagProx_l	bflh_l	bfsh_l	edl_l	ehl_l	fdl_l	fhl_l	gaslat_l	gasmed_l	glmax1_l	glmax2_l	glmax3_l	glmed1_l	glmed2_l	glmed3_l	glmin1_l	glmin2_l	glmin3_l	grac_l	iliacus_l	perbrev_l	perlong_l	piri_l	psoas_l	recfem_l	sart_l	semimem_l	semiten_l	soleus_l	tfl_l	tibant_l	tibpost_l	vasint_l	vaslat_l	vasmed_l	addbrev_r	addlong_r	addmagDist_r	addmagIsch_r	addmagMid_r	addmagProx_r	bflh_r	bfsh_r	edl_r	ehl_r	fdl_r	fhl_r	gaslat_r	gasmed_r	glmax1_r	glmax2_r	glmax3_r	glmed1_r	glmed2_r	glmed3_r	glmin1_r	glmin2_r	glmin3_r	grac_r	iliacus_r	perbrev_r	perlong_r	piri_r	psoas_r	recfem_r	sart_r	semimem_r	semiten_r	soleus_r	tfl_r	tibant_r	tibpost_r	vasint_r	vaslat_r	vasmed_r	lumbar_extension	lumbar_bending	lumbar_rotation	arm_flex_l	arm_add_l	arm_rot_l	arm_flex_r	arm_add_r	arm_rot_r	elbow_flex_l	elbow_flex_r	pro_sup_l	pro_sup_r	
         11.60000000	         44.51063813	       1025.01017887	          9.69936784	          7.45778064	         37.00266243	        323.27205000	        380.14853413	         22.79901910	         59.52175549	          7.47370511	          5.56808200	         10.18011611	          6.55626854	         11.28846814	        109.77636563	        462.43501926	        469.20757347	          3.21637674	          1.99025366	         13.63883753	          1.99606966	          2.12345822	          3.07129849	        398.72877485	         10.67569179	          4.80811939	         44.93676533	         32.31362047	        617.92011569	       1827.02904136	         64.97013954	          6.93206590	         43.42328945	         37.40522510	         62.28288879	        146.66063355	         20.61697904	         12.11132642	         35.06265027	         18.65531854	          3.07442962	          2.73081160	          4.41960647	          3.26016658	          4.57002209	         74.48367130	          0.00517337	         21.33514994	        259.44265755	          0.01438715	          6.06855692	         11.67118907	        160.10104766	        351.29374519	          9.00267549	         13.65012681	         55.66970695	          9.46697959	          7.71407068	          9.26410663	          3.37438691	          3.39024938	          1.86385368	          0.47899299	        101.78897738	         84.30892690	        175.98201906	          3.43729212	       1102.67207844	          3.17965587	        206.42400966	          3.15038007	          1.38292159	         61.58359734	          0.63932715	        623.85161914	         25.55830014	         16.95224339	         64.54849454	         23.52936940	        -31.93257867	         32.29854471	          2.81567656	        139.28031484	        -64.80128798	        -47.31124458	        133.04845125	         61.57375465	        -11.94993691	        -73.21022363	        -62.80395515	          0.55754548	         29.95177223	
         11.61000000	         33.72610464	        700.20817902	          8.15587142	          7.59143524	         30.49021357	        263.47232129	        457.35273770	        341.63481475	         63.31354850	          2.00218941	          4.97780908	         10.50012905	         33.91844592	         65.71456522	         98.20322342	        435.32295277	        409.90633304	          3.47522039	          3.07963891	         28.29470252	          2.03201664	         14.55087538	          4.76385651	        298.89292718	          8.20794452	         17.70372078	         17.29952916	         39.13805949	        155.55424249	       1497.97563919	        196.30645841	          5.79515394	        292.88458517	         50.24973462	         50.42840953	        163.30302341	         20.42521017	         13.08246364	         39.45026739	         20.37833225	          7.50391912	         11.30876748	          4.64347634	          3.63033529	          5.03741598	        284.40387671	        157.02198801	        332.44380741	        215.57085448	         31.27694354	          6.47853856	         12.93112522	        182.35740285	        371.62032564	         10.06758795	         15.62053797	         50.27717911	         10.24369941	          8.64108684	         10.72758294	          3.43407861	          3.72423818	          2.37688797	          5.45247933	         57.86561795	         52.80694394	        169.38880315	          5.16913548	        824.23282797	          4.56743251	        204.29883596	          9.82867850	          6.42938357	         78.01499922	          0.63149156	        593.37903642	         28.05035209	         21.19054813	         68.68456913	         29.35627924	        -98.55303408	         98.82750219	         76.67128501	        141.85317263	        -11.57315790	        -72.62848847	        143.16034539	          8.22457276	        -11.52670264	        -16.93541688	        -80.77932579	         -1.14496479	          3.63456127	
         11.62000000	         25.08596842	        857.67396629	          8.19907726	          7.75787131	         25.55608135	        261.47009791	        500.73534679	        261.06961036	         62.46692280	         14.71609471	          5.99307862	         10.71273498	         33.30969991	         62.96655978	         80.83337533	        357.02230689	        362.19203336	          3.50112896	          2.45070115	         22.81357623	          2.01743098	         11.52462788	          1.48368166	        334.41302732	         60.65781780	         15.05653571	         58.70960366	         26.12350030	        879.71756363	       1246.62727042	        165.08019851	          5.76111819	        221.26928431	         55.86352286	         40.40398025	        174.99816443	         22.36885367	         13.57523509	         40.77542851	         21.06964605	          5.04008152	          6.38502028	          4.87829600	          3.93939943	          4.05410647	        215.39512000	         60.60346987	        239.15885626	        169.65539600	          0.00396451	          7.15417025	         14.34543346	        198.60151026	        255.78754058	         10.94512390	         17.20255100	         44.14603756	         11.10400275	          9.47768830	         11.96130372	          3.56316964	          4.05760555	          2.85194399	          4.05715621	         92.95539587	         46.03926775	        164.98827462	          6.71329819	        936.11371397	          4.98501619	        187.25115162	          8.03388363	          5.22721107	         95.11271321	          0.52856861	        570.71533695	         30.87059065	         24.23931917	         71.41750810	         33.66027287	       -148.61585519	        117.69132411	        132.17090620	        143.49173801	         28.63463513	        -91.66144236	        144.65632547	        -31.25105161	         28.14923103	         25.30959291	        -97.20598697	         -3.68229159	          5.75068077	
         11.63000000	        118.30518773	        745.46673892	          7.98498378	          7.65347051	         20.80666026	        425.77703190	        541.52116320	        269.80768026	         56.82553508	         10.19611066	          2.80719283	         10.99266553	         41.20471887	         79.26380380	         69.72599980	        307.55662749	        244.92608661	          3.85429055	          2.77837166	         20.12921172	          2.12316453	          9.80770522	          0.02146964	        330.91575690	         48.23854019	         12.49438376	         45.87913796	         13.43959495	        862.09990316	        998.25028421	        192.12205360	          4.12238913	        237.91898047	         59.33621273	         30.14336522	        176.38094850	         13.82817951	         14.46967820	         43.20486334	         22.34098813	          3.14784052	          2.75967452	          5.02274319	          4.02815555	          3.88428695	        162.75913087	        111.23536887	        176.56661917	        132.59273237	         32.59522336	          7.09732449	         14.96419004	        136.59440674	        302.07056359	         11.69767807	         18.63637615	         38.05367471	         11.52052674	         10.10606476	         13.00839125	          3.52454828	          4.28334570	          3.40849561	          3.06294892	         65.14206034	         41.75268260	        168.81435300	          9.77859373	        692.53976196	          5.36525956	        178.09936662	          6.37878457	          4.21474892	        107.52474710	          0.38659554	        534.94849589	         31.47825615	         26.79221219	         79.38215104	         37.42872234	       -103.48616537	        100.06178481	        144.01756082	        144.85848729	         58.67988387	       -105.44911711	        145.36723657	        -15.57758693	        -12.82028356	         57.06723918	        -36.43129193	         -6.38370540	          2.22714328	
